<?xml version="1.0" encoding="utf-8"?>
<!-- Generator: Adobe Illustrator 17.0.0, SVG Export Plug-In . SVG Version: 6.00 Build 0)  -->
<!DOCTYPE svg PUBLIC "-//W3C//DTD SVG 1.1//EN" "http://www.w3.org/Graphics/SVG/1.1/DTD/svg11.dtd">
<svg version="1.1" id="Layer_1" xmlns="http://www.w3.org/2000/svg" xmlns:xlink="http://www.w3.org/1999/xlink" x="0px" y="0px"
	 width="128px" height="128px" viewBox="0 0 128 128" enable-background="new 0 0 128 128" xml:space="preserve">
<g>
	<g>
		<g>
			<g>
				<circle fill="#D9D9D8" cx="63.028" cy="64.067" r="63.028"/>
			</g>
		</g>
	</g>
</g>
<rect x="64.107" y="38.531" fill="#10AE62" width="2.545" height="37.332"/>
<g>
	<polygon fill="#BF6F2F" points="75.852,106.586 52.364,106.586 47.329,79.533 80.883,79.533 	"/>
	<polygon opacity="0.36" fill="#663E18" points="58.827,84.986 75.852,106.586 80.305,82.648 	"/>
	<g>
		<circle fill="#663E18" cx="57.02" cy="73.613" r="3.524"/>
		<circle fill="#663E18" cx="62.44" cy="72.35" r="3.524"/>
		<circle fill="#663E18" cx="68.386" cy="73.254" r="3.524"/>
		<circle fill="#663E18" cx="71.639" cy="74.518" r="3.524"/>
	</g>
	<path fill="#904D21" d="M84.71,82.49c0,1.378-1.117,2.495-2.495,2.495H45.997c-1.378,0-2.495-1.117-2.495-2.495v-7.138
		c0-1.378,1.117-2.495,2.495-2.495h36.218c1.378,0,2.495,1.117,2.495,2.495V82.49z"/>
</g>
<path fill="#10AE62" d="M65.964,64.908l18.744-9.106C71.523,50.684,66.693,62.803,65.964,64.908z"/>
<path fill="#129563" d="M65.964,64.908c-0.068,0.197-0.104,0.312-0.104,0.312c16.76,4.189,18.851-9.418,18.851-9.418h-0.002
	L65.964,64.908z"/>
<path fill="#10AE62" d="M41.374,50.574l23.128,6.914C57.067,42.293,42.006,50.232,41.374,50.574z"/>
<path fill="#129563" d="M41.374,50.574c-0.013,0.008-0.029,0.018-0.029,0.018c10.571,17.293,23.518,7.633,23.518,7.633
	c-0.116-0.258-0.241-0.492-0.36-0.736L41.374,50.574z"/>
<path fill="#10AE62" d="M65.405,39.322c-8.077-12-19.339-3.803-20.345-3.033l20.328,3.051C65.394,39.33,65.405,39.322,65.405,39.322
	z"/>
<path fill="#129563" d="M45.06,36.289c-0.047,0.037-0.081,0.062-0.081,0.062c10.906,12.479,20.036,3.369,20.409,2.988L45.06,36.289z
	"/>
<g>
	<path fill="#10AE62" d="M83.454,35.043c0,0-12.764-7.502-19.438,5.205l19.386-5.131C83.42,35.092,83.437,35.068,83.454,35.043z"/>
	<path fill="#129563" d="M64.016,40.248c-0.117,0.221-0.235,0.434-0.348,0.666c0,0,10.557,8.303,19.733-5.797L64.016,40.248z"/>
</g>
<g>
	<path fill="#10AE62" d="M64.489,35.934l1.807-14.342C65.606,22.121,57.992,28.25,64.489,35.934z"/>
	<path fill="#129563" d="M66.349,21.551c0,0-0.021,0.016-0.053,0.041l-1.807,14.342c0.047,0.053,0.085,0.105,0.132,0.158
		C64.621,36.092,73.029,31.525,66.349,21.551z"/>
</g>
<g>
	<g>
		<g>
			<g>
				<circle fill="#D9D9D8" cx="63.028" cy="64.067" r="63.028"/>
			</g>
		</g>
	</g>
</g>
<rect x="64.107" y="38.531" fill="#10AE62" width="2.545" height="37.332"/>
<g>
	<polygon fill="#BF6F2F" points="75.852,106.586 52.364,106.586 47.329,79.533 80.883,79.533 	"/>
	<polygon opacity="0.36" fill="#663E18" points="58.827,84.986 75.852,106.586 80.305,82.648 	"/>
	<g>
		<circle fill="#663E18" cx="57.02" cy="73.613" r="3.524"/>
		<circle fill="#663E18" cx="62.44" cy="72.35" r="3.524"/>
		<circle fill="#663E18" cx="68.386" cy="73.254" r="3.524"/>
		<circle fill="#663E18" cx="71.639" cy="74.518" r="3.524"/>
	</g>
	<path fill="#904D21" d="M84.71,82.49c0,1.378-1.117,2.495-2.495,2.495H45.997c-1.378,0-2.495-1.117-2.495-2.495v-7.138
		c0-1.378,1.117-2.495,2.495-2.495h36.218c1.378,0,2.495,1.117,2.495,2.495V82.49z"/>
</g>
<path fill="#10AE62" d="M65.964,64.908l18.744-9.106C71.523,50.684,66.693,62.803,65.964,64.908z"/>
<path fill="#129563" d="M65.964,64.908c-0.068,0.197-0.104,0.312-0.104,0.312c16.76,4.189,18.851-9.418,18.851-9.418h-0.002
	L65.964,64.908z"/>
<path fill="#10AE62" d="M41.374,50.574l23.128,6.914C57.067,42.293,42.006,50.232,41.374,50.574z"/>
<path fill="#129563" d="M41.374,50.574c-0.013,0.008-0.029,0.018-0.029,0.018c10.571,17.293,23.518,7.633,23.518,7.633
	c-0.116-0.258-0.241-0.492-0.36-0.736L41.374,50.574z"/>
<path fill="#10AE62" d="M65.405,39.322c-8.077-12-19.339-3.803-20.345-3.033l20.328,3.051C65.394,39.33,65.405,39.322,65.405,39.322
	z"/>
<path fill="#129563" d="M45.06,36.289c-0.047,0.037-0.081,0.062-0.081,0.062c10.906,12.479,20.036,3.369,20.409,2.988L45.06,36.289z
	"/>
<g>
	<path fill="#10AE62" d="M83.454,35.043c0,0-12.764-7.502-19.438,5.205l19.386-5.131C83.42,35.092,83.437,35.068,83.454,35.043z"/>
	<path fill="#129563" d="M64.016,40.248c-0.117,0.221-0.235,0.434-0.348,0.666c0,0,10.557,8.303,19.733-5.797L64.016,40.248z"/>
</g>
<g>
	<path fill="#10AE62" d="M64.489,35.934l1.807-14.342C65.606,22.121,57.992,28.25,64.489,35.934z"/>
	<path fill="#129563" d="M66.349,21.551c0,0-0.021,0.016-0.053,0.041l-1.807,14.342c0.047,0.053,0.085,0.105,0.132,0.158
		C64.621,36.092,73.029,31.525,66.349,21.551z"/>
</g>
</svg>
